<svg width="468" height="76" viewBox="0 0 468 76" fill="none" xmlns="http://www.w3.org/2000/svg">
  <g clip-path="url(#clip0_1_167)">
    <path fill-rule="evenodd" clip-rule="evenodd" d="M64 72.512H73V43.512H64V72.512Z" fill="#4A4A4A"/>
    <path fill-rule="evenodd" clip-rule="evenodd" d="M64 36.512H73V3.51199H64V36.512Z" fill="#4A4A4A"/>
    <path fill-rule="evenodd" clip-rule="evenodd" d="M44 72.512H53V28.512H44V72.512Z" fill="#4A4A4A"/>
    <path fill-rule="evenodd" clip-rule="evenodd" d="M44 21.512H53V3.51199H44V21.512Z" fill="#46D7CE"/>
    <path fill-rule="evenodd" clip-rule="evenodd" d="M24 72.512H33V55.512H24V72.512Z" fill="#46D7CE"/>
    <path fill-rule="evenodd" clip-rule="evenodd" d="M24 48.512H33V3.51199H24V48.512Z" fill="#4A4A4A"/>
    <path fill-rule="evenodd" clip-rule="evenodd" d="M4 72.512H13V3.51199H4V72.512Z" fill="#4A4A4A"/>
    <path fill-rule="evenodd" clip-rule="evenodd"
          d="M139.399 37.6393V2.20425H146.239V71.4593H139.399V65.9493C137.119 68.8943 132.844 72.5993 125.909 72.5993C115.934 72.5993 106.719 65.5693 106.719 51.6993C106.719 38.1143 115.839 31.0843 125.909 31.0843C133.509 31.0843 137.594 35.2643 139.399 37.6393ZM126.669 37.1643C119.924 37.1643 113.749 42.1043 113.749 51.6993C113.749 60.1543 118.499 66.5193 126.669 66.5193C135.029 66.5193 139.779 59.5843 139.779 51.7943C139.779 41.6292 132.749 37.1643 126.669 37.1643ZM192.069 37.6393V32.0343H198.909V71.4593H192.069V65.9493C189.789 68.8943 185.514 72.5993 178.579 72.5993C168.604 72.5993 159.389 65.5693 159.389 51.6993C159.389 38.1143 168.509 31.0843 178.579 31.0843C186.179 31.0843 190.264 35.2643 192.069 37.6393ZM179.339 37.1643C172.594 37.1643 166.419 42.1043 166.419 51.6993C166.419 60.1543 171.169 66.5193 179.339 66.5193C187.699 66.5193 192.449 59.5843 192.449 51.7943C192.449 41.6292 185.419 37.1643 179.339 37.1643ZM228.399 38.3043H221.559V71.4593H214.719V38.3043H210.539V32.0343H214.719V17.7843H221.559V32.0343H228.399V38.3043ZM267.768 37.6393V32.0343H274.609V71.4593H267.768V65.9493C265.488 68.8943 261.214 72.5993 254.279 72.5993C244.303 72.5993 235.089 65.5693 235.089 51.6993C235.089 38.1143 244.208 31.0843 254.279 31.0843C261.879 31.0843 265.964 35.2643 267.768 37.6393ZM255.038 37.1643C248.294 37.1643 242.118 42.1043 242.118 51.6993C242.118 60.1543 246.868 66.5193 255.038 66.5193C263.398 66.5193 268.148 59.5843 268.148 51.7943C268.148 41.6292 261.118 37.1643 255.038 37.1643ZM284.529 32.0343H292.128L303.814 58.8243L316.163 28.9943L328.419 58.8243L340.199 32.0343H347.798L328.229 74.2143L316.068 44.7643L303.908 74.2143L284.529 32.0343ZM376.148 72.5993C364.178 72.5993 355.249 63.8593 355.249 51.8893C355.249 39.9193 364.083 31.0843 376.148 31.0843C388.214 31.0843 397.048 39.9193 397.048 51.8893C397.048 63.8593 388.118 72.5993 376.148 72.5993ZM376.148 37.1643C368.928 37.1643 362.279 42.2943 362.279 51.8893C362.279 61.5793 369.118 66.5193 376.148 66.5193C383.273 66.5193 390.018 61.4843 390.018 51.8893C390.018 42.1993 383.368 37.1643 376.148 37.1643ZM404.499 32.0343H412.099L423.784 58.8243L436.134 28.9943L448.388 58.8243L460.168 32.0343H467.768L448.198 74.2143L436.039 44.7643L423.879 74.2143L404.499 32.0343Z"
          fill="#4A4A4A"/>
  </g>
  <defs>
    <clipPath id="clip0_1_167">
      <rect width="464" height="73" fill="white" transform="translate(4 2)"/>
    </clipPath>
  </defs>
</svg>
